<svg width="56" height="51" viewBox="0 0 56 51" fill="none" xmlns="http://www.w3.org/2000/svg">
<g id="bi:youtube" clip-path="url(#clip0_108_23)">
<path id="Vector" d="M28.1785 6.37183H28.49C31.367 6.38139 45.9445 6.47701 49.875 7.43964C51.0632 7.73343 52.146 8.30607 53.0151 9.10035C53.8841 9.89463 54.5091 10.8827 54.8275 11.9659C55.181 13.1771 55.4295 14.7805 55.5975 16.4348L55.6325 16.7663L55.7095 17.595L55.7375 17.9265C55.965 20.8399 55.993 23.5684 55.9965 24.1644V24.4035C55.993 25.0219 55.9615 27.9353 55.7095 30.9698L55.6815 31.3045L55.65 31.636C55.475 33.4592 55.216 35.2697 54.8275 36.6021C54.5101 37.6857 53.8854 38.6742 53.0162 39.4687C52.147 40.2631 51.0637 40.8354 49.875 41.1283C45.815 42.1228 30.3835 42.193 28.245 42.1961H27.748C26.6665 42.1961 22.1935 42.177 17.5035 42.0304L16.9085 42.0113L16.604 41.9985L16.0055 41.9762L15.407 41.9539C11.522 41.7977 7.8225 41.5459 6.118 41.1251C4.92971 40.8325 3.84673 40.2606 2.97754 39.4668C2.10834 38.673 1.48346 37.6851 1.1655 36.6021C0.777 35.2729 0.518 33.4592 0.343 31.636L0.315 31.3013L0.287 30.9698C0.114267 28.8099 0.0185495 26.6455 0 24.48L0 24.088C0.007 23.4026 0.035 21.0343 0.224 18.4206L0.2485 18.0923L0.259 17.9265L0.287 17.595L0.364 16.7663L0.399 16.4348C0.567 14.7805 0.8155 13.174 1.169 11.9659C1.48643 10.8823 2.11107 9.89373 2.9803 9.09931C3.84952 8.3049 4.93279 7.73255 6.1215 7.43964C7.826 7.02526 11.5255 6.77026 15.4105 6.61089L16.0055 6.58858L16.6075 6.56945L16.9085 6.55989L17.507 6.53758C20.838 6.43996 24.1703 6.38576 27.503 6.37501H28.1785V6.37183ZM22.4 16.6037V31.9611L36.9495 24.2856L22.4 16.6037Z" fill="#FECF5D"/>
</g>
<defs>
<clipPath id="clip0_108_23">
<rect width="56" height="51" fill="white"/>
</clipPath>
</defs>
</svg>
