<svg width="56" height="56" viewBox="0 0 56 56" fill="none" xmlns="http://www.w3.org/2000/svg">
<g id="mdi:spotify">
<path id="Vector" d="M41.7667 25.4333C34.3 21 21.8167 20.5333 14.7 22.75C13.5333 23.1 12.3667 22.4 12.0167 21.35C11.6667 20.1833 12.3667 19.0167 13.4167 18.6667C21.7 16.2167 35.35 16.6833 43.9833 21.8167C45.0333 22.4 45.3833 23.8 44.8 24.85C44.2167 25.6667 42.8167 26.0167 41.7667 25.4333ZM41.5333 31.9667C40.95 32.7833 39.9 33.1333 39.0833 32.55C32.7833 28.7 23.2167 27.5333 15.8667 29.8667C14.9333 30.1 13.8833 29.6333 13.65 28.7C13.4167 27.7667 13.8833 26.7167 14.8167 26.4833C23.3333 23.9167 33.8333 25.2 41.0667 29.6333C41.7667 29.9833 42.1167 31.15 41.5333 31.9667ZM38.7333 38.3833C38.2667 39.0833 37.45 39.3167 36.75 38.85C31.2667 35.4667 24.3833 34.7667 16.2167 36.6333C15.4 36.8667 14.7 36.2833 14.4667 35.5833C14.2333 34.7667 14.8167 34.0667 15.5167 33.8333C24.3833 31.85 32.0833 32.6667 38.15 36.4C38.9667 36.75 39.0833 37.6833 38.7333 38.3833ZM28 4.66666C24.9358 4.66666 21.9016 5.27019 19.0707 6.4428C16.2398 7.61541 13.6675 9.33413 11.5008 11.5008C7.12498 15.8767 4.66666 21.8116 4.66666 28C4.66666 34.1884 7.12498 40.1233 11.5008 44.4991C13.6675 46.6658 16.2398 48.3846 19.0707 49.5572C21.9016 50.7298 24.9358 51.3333 28 51.3333C34.1884 51.3333 40.1233 48.875 44.4991 44.4991C48.875 40.1233 51.3333 34.1884 51.3333 28C51.3333 24.9358 50.7298 21.9016 49.5572 19.0707C48.3846 16.2398 46.6658 13.6675 44.4991 11.5008C42.3324 9.33413 39.7602 7.61541 36.9293 6.4428C34.0983 5.27019 31.0642 4.66666 28 4.66666Z" fill="#FECF5D"/>
</g>
</svg>
