<svg width="61" height="61" viewBox="0 0 61 61" fill="none" xmlns="http://www.w3.org/2000/svg">
<g id="ri:instagram-fill">
<path id="Vector" d="M33.1128 5.08586C34.9676 5.07874 36.8223 5.09738 38.6766 5.14178L39.1696 5.15957C39.739 5.1799 40.3007 5.20532 40.9793 5.23582C43.6836 5.3629 45.5289 5.7899 47.1479 6.41769C48.8254 7.06328 50.2386 7.93761 51.6518 9.35078C52.9439 10.6206 53.9439 12.1566 54.5823 13.8521C55.2101 15.4711 55.6371 17.3189 55.7642 20.0232C55.7947 20.6993 55.8201 21.2636 55.8404 21.8329L55.8557 22.326C55.9008 24.1793 55.9203 26.0333 55.9141 27.8872L55.9167 29.7832V33.1128C55.9229 34.9676 55.9035 36.8223 55.8582 38.6765L55.843 39.1696C55.8226 39.7389 55.7972 40.3007 55.7667 40.9793C55.6396 43.6836 55.2076 45.5289 54.5823 47.1479C53.946 48.8451 52.9457 50.3824 51.6518 51.6517C50.3808 52.9437 48.844 53.9437 47.1479 54.5823C45.5289 55.2101 43.6836 55.6371 40.9793 55.7642C40.3007 55.7947 39.739 55.8201 39.1696 55.8404L38.6766 55.8557C36.8223 55.9008 34.9676 55.9203 33.1128 55.9141L31.2168 55.9167H27.8897C26.035 55.9229 24.1802 55.9034 22.326 55.8582L21.8329 55.8429C21.2296 55.8211 20.6263 55.7957 20.0233 55.7667C17.3189 55.6396 15.4737 55.2075 13.8521 54.5823C12.156 53.9452 10.6197 52.945 9.3508 51.6517C8.05721 50.3816 7.05625 48.8446 6.41772 47.1479C5.78993 45.5289 5.36293 43.6836 5.23585 40.9793C5.20754 40.3762 5.18212 39.773 5.1596 39.1696L5.14689 38.6765C5.10003 36.8223 5.07885 34.9676 5.08335 33.1128V27.8872C5.07625 26.0333 5.09489 24.1794 5.13926 22.326L5.15705 21.8329C5.17739 21.2636 5.2028 20.6993 5.2333 20.0232C5.36039 17.3164 5.78739 15.4737 6.41518 13.8521C7.05408 12.1558 8.057 10.6202 9.35335 9.35332C10.6214 8.05898 12.1567 7.05711 13.8521 6.41769C15.4737 5.7899 17.3164 5.3629 20.0233 5.23582L21.8329 5.15957L22.326 5.14686C24.1794 5.10003 26.0333 5.07884 27.8872 5.08332L33.1128 5.08586ZM30.5 17.7942C28.8162 17.7704 27.1444 18.0815 25.5818 18.7094C24.0193 19.3373 22.5971 20.2695 21.3979 21.4518C20.1987 22.6341 19.2465 24.043 18.5966 25.5965C17.9467 27.15 17.612 28.8173 17.612 30.5013C17.612 32.1853 17.9467 33.8525 18.5966 35.406C19.2465 36.9595 20.1987 38.3684 21.3979 39.5507C22.5971 40.733 24.0193 41.6652 25.5818 42.2931C27.1444 42.9211 28.8162 43.2321 30.5 43.2083C33.8705 43.2083 37.1029 41.8694 39.4862 39.4861C41.8694 37.1029 43.2083 33.8704 43.2083 30.5C43.2083 27.1295 41.8694 23.8971 39.4862 21.5138C37.1029 19.1306 33.8705 17.7942 30.5 17.7942ZM30.5 22.8775C31.5129 22.8589 32.5193 23.0422 33.4605 23.4169C34.4017 23.7916 35.2589 24.35 35.9818 25.0597C36.7048 25.7693 37.2791 26.6159 37.6712 27.55C38.0633 28.4841 38.2653 29.4869 38.2655 30.5C38.2657 31.513 38.064 32.5159 37.6722 33.4501C37.2804 34.3844 36.7064 35.2311 35.9836 35.941C35.2609 36.6509 34.404 37.2097 33.4629 37.5846C32.5218 37.9596 31.5154 38.1433 30.5026 38.125C28.4803 38.125 26.5408 37.3216 25.1109 35.8917C23.6809 34.4617 22.8776 32.5223 22.8776 30.5C22.8776 28.4777 23.6809 26.5383 25.1109 25.1083C26.5408 23.6783 28.4803 22.875 30.5026 22.875L30.5 22.8775ZM43.8438 13.9817C43.0238 14.0145 42.2483 14.3633 41.6798 14.9551C41.1113 15.5468 40.7937 16.3356 40.7937 17.1562C40.7937 17.9769 41.1113 18.7656 41.6798 19.3574C42.2483 19.9491 43.0238 20.298 43.8438 20.3308C44.6864 20.3308 45.4945 19.996 46.0903 19.4002C46.6861 18.8044 47.0208 17.9963 47.0208 17.1537C47.0208 16.3111 46.6861 15.503 46.0903 14.9072C45.4945 14.3113 44.6864 13.9766 43.8438 13.9766V13.9817Z" fill="#FECF5D"/>
</g>
</svg>
